<svg enable-background="new 0 0 87.3 17.5" viewBox="0 0 87.3 17.5" xmlns="http://www.w3.org/2000/svg"><g fill="#0edc8d"><path d="m28.3 8.4v2.6h4.9v2h-6.8v-10.9h6.8v2h-4.9v2.4h4.3v1.9z"/><path d="m39.9 2.1h2v10.8h-2v-.8c-.6.7-1.5 1-2.4 1-.5 0-.9-.1-1.3-.3s-.8-.4-1.1-.7-.6-.8-.8-1.2c-.2-.5-.3-1-.3-1.6 0-.5.1-1 .2-1.4.3-.8.8-1.4 1.4-1.9.3-.2.6-.4 1-.5s.7-.2 1.1-.2c.8 0 1.6.3 2.2.9zm0 7.1c0-.6-.2-1.1-.6-1.6-.4-.4-.9-.6-1.4-.6s-1 .2-1.4.6-.6 1-.6 1.5c0 .6.2 1.2.6 1.6s.9.6 1.4.6 1-.2 1.4-.6c.4-.3.6-.9.6-1.5z"/><path d="m48.9 5.6h1.9v7.3h-1.9v-.8c-.5.7-1.2 1-2 1-.9.1-1.8-.2-2.5-.8-.7-.8-1-1.9-.9-2.9v-3.8h1.9v3.6c0 .5.1 1.1.5 1.5.3.4.7.6 1.2.6s1-.2 1.3-.6c.4-.5.6-1.2.5-1.8z"/></g><path d="m57.2 8.5v-1.9h5.2v6.3h-2v-.8c-.8.7-1.8 1-2.9 1-.8 0-1.6-.1-2.3-.4s-1.3-.7-1.8-1.2-.8-1.1-1.1-1.8c-.2-.6-.3-1.4-.3-2.1 0-1.2.3-2.4 1-3.3.3-.5.7-.9 1.2-1.2.4-.4.9-.6 1.5-.8.5-.2 1.1-.3 1.7-.3 1.1 0 2.2.3 3.1.9s1.6 1.4 2 2.4l-2 .7c-.2-.6-.7-1.1-1.2-1.4s-1.2-.5-1.8-.5c-.9 0-1.7.3-2.3 1s-.9 1.7-.9 2.6.3 1.8.9 2.5c1.2 1.1 2.9 1.3 4.3.4.6-.5 1-1.2 1-1.9z"/><path d="m68 5.6h.4v1.8c-.2-.1-.4-.1-.6-.1-.5 0-1 .2-1.3.6s-.5.9-.6 1.5v3.6h-2v-7.4h2v.8c.5-.6 1.3-.9 2.1-.8z"/><path d="m69.1 3.2c0-.3.1-.7.4-.9.2-.3.5-.4.8-.4s.6.1.8.4c.5.5.5 1.3 0 1.7-.2.2-.5.4-.8.4s-.7-.1-.9-.4c-.2-.2-.3-.5-.3-.8zm.2 2.4h2v7.3h-2z"/><path d="m78.3 2.1h2v10.8h-2v-.8c-.6.7-1.5 1-2.4 1-.5 0-.9-.1-1.3-.3s-.8-.4-1.1-.8c-.3-.3-.6-.8-.8-1.2-.2-.5-.3-1.1-.3-1.6s.1-1 .2-1.4c.3-.7.8-1.4 1.4-1.8.3-.2.6-.4 1-.5s.7-.1 1.1-.1c.8 0 1.6.3 2.2.9zm0 7.1c0-.6-.2-1.1-.6-1.6-.4-.4-.9-.6-1.4-.6s-1 .2-1.4.6-.6 1-.6 1.6.2 1.2.6 1.6.9.6 1.4.6 1-.2 1.4-.6.6-1 .6-1.6z"/><path d="m87.3 7.3-1.8.4c-.1-.2-.2-.4-.4-.5s-.5-.2-.7-.2-.4 0-.6.1c-.1.1-.2.2-.3.4 0 .1 0 .3.1.4s.2.2.4.3l1.5.4c.5.1 1 .4 1.3.8s.4.9.4 1.4c0 .7-.3 1.3-.8 1.7-.6.4-1.3.7-2 .6-.7 0-1.4-.2-2.1-.6-.5-.3-.9-.9-1-1.5l1.9-.3c0 .2.2.4.4.5.2.2.5.2.8.2.6 0 .9-.2.9-.6 0-.2-.2-.4-.6-.5-.7-.2-1.2-.3-1.4-.4-.5-.1-1-.5-1.3-.9s-.5-.9-.5-1.4c0-.7.3-1.3.8-1.7.5-.5 1.2-.7 1.9-.7s1.3.2 1.9.5c.7.5 1.1 1 1.2 1.6z"/><path d="m18.1 17.4h-.2c-.1 0-.3 0-.4 0s-.2-.1-.3-.2-.1-.3 0-.4l.2-.6c.1-.4.2-.8.3-1 .1-.1 0-.2-.1-.3-.2-.2-.4-.5-.4-.8-.1-.3-.1-.6 0-.9s.2-.5.5-.7c.1-.1.1-.2.1-.3v-6.5c0-.1 0-.2 0-.2s-.1 0-.2 0l-5.6 1.7-1.1.4c-.3.1-.7.1-1 0-2.1-.7-3.7-1.2-4.8-1.6-1.8-.7-3.4-1.3-4.8-1.8 0 0-.1-.1-.2-.2 0 0-.1-.2 0-.3 0-.1 0-.2.1-.3s.1-.1.2-.1c1-.4 2.4-.9 4.3-1.5l1.7-.6c.5-.2 1.2-.4 2.2-.7l1-.3c.6-.2 1.3-.2 1.9 0 1.9.6 3.4 1.1 4.5 1.5 1.7.6 3.2 1.2 4.5 1.8h.1c.3 0 .4.3.4.5 0 .1 0 .2-.1.3s-.2.1-.3.1c-1 .3-1.7.6-2.1.7-.1 0-.1.1-.1.1v.2 6.7c0 .1 0 .2.1.2.3.2.5.4.6.7s.1.7.1 1c-.1.3-.2.6-.5.9 0 0-.1.1-.1.1v.2l.4 1.5c.1.5 0 .7-.4.7zm-14.4-9.5v-.4c0-.4 0-.7 0-.9 0-.1 0-.1 0-.2h.2c1.7.7 3 1.1 4 1.4l2.2.7c.2.1.4.1.6 0 .2 0 .4-.1.6-.2.8-.2 1.8-.6 3.3-1.1l2.4-.8h.3v.3 2.3c0 .5-.1 1-.4 1.3-.4.5-.9.9-1.5 1.1-1.1.5-2.3.7-3.5.8-1.3.1-2.6.1-3.8-.2-1-.1-2-.5-2.8-1-.4-.2-.7-.5-1-.9-.4-.1-.6-.5-.6-1z" fill="#0edc8d"/></svg>